Coordinates
version=1
nRows=4
nColumns=107
inDegrees=yes

Units are S.I. units (second, meters, Newtons, ...)
If the header above contains a line with 'inDegrees', this indicates whether rotational values are in degrees (yes) or radians (no).

endheader
time	sternoclavicular_r2	sternoclavicular_r3	unrotscap_r3	unrotscap_r2	acromioclavicular_r2	acromioclavicular_r3	acromioclavicular_r1	unrothum_r1	unrothum_r3	unrothum_r2	elv_angle	shoulder_elv	shoulder1_r2	shoulder_rot	elbow_flexion	pro_sup	deviation	flexion	proximal_distal_r1	proximal_distal_r3	cmc_flexion	cmc_abduction	mp_flexion	ip_flexion	mcp2_flexion	mcp2_abduction	pm2_flexion	md2_flexion	mcp3_flexion	mcp3_abduction	pm3_flexion	md3_flexion	mcp4_flexion	mcp4_abduction	pm4_flexion	md4_flexion	mcp5_flexion	mcp5_abduction	pm5_flexion	md5_flexion	bicpt_tx	bicpt_ty	bicpt_tz	bicpt2_tx	bicpt2_ty	bicpt2_tz	ptpt_tx	ptpt_ty	ptpt_tz	FCUpt_tx	FCUpt_ty	FCUpt_tz	EDCpt_tx	EDCpt_ty	EDCpt_tz	APLpt_tx	APLpt_ty	APLpt_tz	FPLpt_tx	FPLpt_ty	FPLpt_tz	FPLpt2_tx	FPLpt2_ty	FPLpt2_tz	PEC1pt2_tx	PEC1pt2_ty	PEC1pt2_tz	PEC1pt3_tx	PEC1pt3_ty	PEC1pt3_tz	PEC2pt2_tx	PEC2pt2_ty	PEC2pt2_tz	PEC2pt3_tx	PEC2pt3_ty	PEC2pt3_tz	PEC3pt2_tx	PEC3pt2_ty	PEC3pt2_tz	PEC3pt3_tx	PEC3pt3_ty	PEC3pt3_tz	DELT2pt2a_tx	DELT2pt2a_ty	DELT2pt2a_tz	DELT2pt2_tx	DELT2pt2_ty	DELT2pt2_tz	LAT1pt2_tx	LAT1pt2_ty	LAT1pt2_tz	LAT1pt3_tx	LAT1pt3_ty	LAT1pt3_tz	LAT2pt2_tx	LAT2pt2_ty	LAT2pt2_tz	LAT2pt3_tx	LAT2pt3_ty	LAT2pt3_tz	LAT3pt2_tx	LAT3pt2_ty	LAT3pt2_tz	LAT3pt3_tx	LAT3pt3_ty	LAT3pt3_tz
      0.00000000	     -0.32128290	      0.13608027	     -0.13608027	      0.32128290	     -0.06505325	      0.52573749	      0.23631538	     -0.23631538	     -0.52573749	      0.06505325	     97.72444869	     76.06658125	     -1.70561339	    -22.31690085	     30.45768724	     34.90498795	      0.15724367	     -1.01721882	      0.19316446	     -0.50860941	     12.36059768	      1.50343311	    -41.19960503	    -55.58008646	     74.81157491	     13.39556022	     84.27299931	     82.31018040	     82.11811696	      4.69166365	     83.18858255	     50.36804871	     84.39294266	    -11.81193670	     93.73791498	     43.00926541	     89.98026029	    -13.98060961	     93.50519029	      5.51425484	      0.00090745	     -0.03109092	     -0.00486230	      0.01653519	     -0.01847398	     -0.00799573	      0.00497092	     -0.06656768	     -0.00286178	      0.00727128	     -0.18359737	     -0.00034048	     -0.00418859	      0.00117699	      0.00017596	      0.00017422	      0.00006969	      0.00034844	      0.00022300	      0.00066900	      0.00037631	      0.00002908	     -0.00022414	     -0.00026897	      0.00249330	      0.00874766	      0.00608533	     -0.00815603	      0.01969281	     -0.01867859	      0.00249330	      0.00874766	      0.00608533	      0.00054937	      0.01825599	     -0.00959285	      0.00394414	      0.00486446	      0.01595834	      0.00000000	      0.00773801	      0.00000000	     -0.00714181	     -0.03300447	     -0.00638011	      0.01507733	     -0.00050414	     -0.00414412	     -0.00088744	      0.01487526	     -0.00608533	      0.00245104	      0.02146770	     -0.01774888	     -0.00595855	      0.01288907	     -0.00545144	     -0.01242422	      0.02721496	     -0.03046892	     -0.02332710	      0.01441040	     -0.00731085	     -0.01546688	      0.03144088	     -0.03807558
      0.03333333	     -0.32111465	      0.13600901	     -0.13600901	      0.32111465	     -0.06501918	      0.52546217	      0.23619163	     -0.23619163	     -0.52546217	      0.06501918	     97.72469350	     76.02674662	     -1.70561766	    -22.31165764	     30.45352349	     34.90129835	      0.15721058	     -1.01718171	      0.19312735	     -0.50859085	     12.35944291	      1.50300417	    -41.20048838	    -55.58058915	     74.81177859	     13.39500059	     84.27341130	     82.31005356	     82.12013462	      4.69138904	     83.18931220	     50.36815722	     84.39469914	    -11.81122971	     93.73736748	     43.00928019	     89.98460729	    -13.98070170	     93.50463697	      5.51427112	      0.00090731	     -0.03109044	     -0.00486222	      0.01653514	     -0.01847285	     -0.00799610	      0.00497119	     -0.06656750	     -0.00286149	      0.00727092	     -0.18359744	     -0.00034044	     -0.00418815	      0.00117685	      0.00017598	      0.00017424	      0.00006970	      0.00034848	      0.00022303	      0.00066909	      0.00037636	      0.00002908	     -0.00022412	     -0.00026895	      0.00249199	      0.00874308	      0.00608214	     -0.00815176	      0.01968250	     -0.01866881	      0.00249199	      0.00874308	      0.00608214	      0.00054908	      0.01824643	     -0.00958783	      0.00394263	      0.00486192	      0.01595464	      0.00000000	      0.00772985	      0.00000000	     -0.00713807	     -0.03298719	     -0.00637333	      0.01507447	     -0.00050397	     -0.00414212	     -0.00088698	      0.01486747	     -0.00608214	      0.00244975	      0.02145646	     -0.01773959	     -0.00595543	      0.01288232	     -0.00544859	     -0.01241771	      0.02720070	     -0.03045296	     -0.02331489	      0.01440286	     -0.00730702	     -0.01545878	      0.03142442	     -0.03805564
      0.06666667	     -0.31850418	      0.13490334	     -0.13490334	      0.31850418	     -0.06449062	      0.52119048	      0.23427153	     -0.23427153	     -0.52119048	      0.06449062	     98.38345089	     75.40869461	     -1.71711515	    -25.44624133	     30.50930328	     36.53900657	      0.13658114	     -1.00796544	      0.17009175	     -0.50398272	     11.74528999	      1.80058055	    -41.47026931	    -58.03589518	     75.03227229	     13.23948889	     84.60710758	     80.93773006	     82.58961565	      4.00854947	     83.69851603	     50.23890099	     85.02117932	    -11.55248421	     92.59797116	     44.64030605	     92.13636476	    -14.02776479	     92.07365486	      5.53727467	      0.00090915	     -0.03109683	     -0.00486325	      0.01655428	     -0.01848800	     -0.00783113	      0.00485018	     -0.06664575	     -0.00299341	      0.00743363	     -0.18356537	     -0.00035735	     -0.00438467	      0.00124130	      0.00016803	      0.00018045	      0.00007218	      0.00036090	      0.00023097	      0.00069292	      0.00038977	      0.00003014	     -0.00021699	     -0.00026039	      0.00247173	      0.00867201	      0.00603270	     -0.00808549	      0.01952249	     -0.01851704	      0.00247173	      0.00867201	      0.00603270	      0.00054462	      0.01809810	     -0.00950988	      0.00391913	      0.00482239	      0.01589678	      0.00000000	      0.00760383	      0.00000000	     -0.00708004	     -0.03271902	     -0.00626870	      0.01672081	     -0.00060480	     -0.00541313	     -0.00087977	      0.01474660	     -0.00603270	      0.00242984	      0.02128203	     -0.01759538	     -0.00590702	      0.01277760	     -0.00540429	     -0.01231676	      0.02697958	     -0.03020540	     -0.02312535	      0.01428577	     -0.00724762	     -0.01533311	      0.03116895	     -0.03774627
      0.10000000	     -0.31836306	      0.13484357	     -0.13484357	      0.31836306	     -0.06446204	      0.52095956	      0.23416774	     -0.23416774	     -0.52095956	      0.06446204	     98.38609272	     75.37528430	     -1.71716126	    -25.44004669	     30.50306487	     36.53702272	      0.13654819	     -1.00793096	      0.17005371	     -0.50396548	     11.74478430	      1.80029959	    -41.47073893	    -58.03616853	     75.03236636	     13.23916115	     84.60741384	     80.93785699	     82.59112578	      4.00840249	     83.69898335	     50.23901498	     85.02098346	    -11.55208173	     92.59723405	     44.64049001	     92.13895130	    -14.02781004	     92.07325887	      5.53729549	      0.00090895	     -0.03109612	     -0.00486313	      0.01655422	     -0.01848631	     -0.00783130	      0.00485033	     -0.06664565	     -0.00299325	      0.00743344	     -0.18356540	     -0.00035732	     -0.00438443	      0.00124122	      0.00016803	      0.00018047	      0.00007219	      0.00036093	      0.00023100	      0.00069299	      0.00038981	      0.00003014	     -0.00021699	     -0.00026038	      0.00247064	      0.00866817	      0.00603003	     -0.00808191	      0.01951384	     -0.01850884	      0.00247064	      0.00866817	      0.00603003	      0.00054438	      0.01809008	     -0.00950567	      0.00391786	      0.00482026	      0.01589363	      0.00000000	      0.00759705	      0.00000000	     -0.00707691	     -0.03270453	     -0.00626307	      0.01671753	     -0.00060460	     -0.00541064	     -0.00087938	      0.01474007	     -0.00603003	      0.00242876	      0.02127260	     -0.01758758	     -0.00590440	      0.01277193	     -0.00540190	     -0.01231131	      0.02696762	     -0.03019201	     -0.02311511	      0.01427944	     -0.00724441	     -0.01532632	      0.03115514	     -0.03772955
